<svg xmlns="http://www.w3.org/2000/svg" width="42" height="28" viewBox="0 0 42 28" fill="none">
  <path d="M29.0459 20.1082C28.7333 20.8304 28.3632 21.4951 27.9346 22.1063C27.3502 22.9394 26.8717 23.5161 26.503 23.8364C25.9314 24.362 25.319 24.6312 24.6632 24.6465C24.1924 24.6465 23.6246 24.5126 22.9637 24.2408C22.3006 23.9703 21.6913 23.8363 21.1341 23.8363C20.5497 23.8363 19.923 23.9703 19.2527 24.2408C18.5813 24.5126 18.0404 24.6542 17.6269 24.6682C16.998 24.695 16.3712 24.4181 15.7455 23.8363C15.3461 23.488 14.8466 22.8909 14.2482 22.045C13.6062 21.1417 13.0784 20.0942 12.6649 18.8999C12.222 17.61 12 16.3609 12 15.1517C12 13.7664 12.2993 12.5717 12.8989 11.5705C13.3701 10.7663 13.9969 10.1319 14.7814 9.66624C15.566 9.20054 16.4137 8.96321 17.3266 8.94805C17.8261 8.94805 18.4811 9.10255 19.2951 9.40621C20.1069 9.7109 20.6281 9.8654 20.8566 9.8654C21.0274 9.8654 21.6064 9.68473 22.5879 9.32455C23.5162 8.99053 24.2995 8.8522 24.9413 8.9067C26.6804 9.04705 27.9869 9.73258 28.8557 10.9676C27.3004 11.91 26.5311 13.2299 26.5464 14.9231C26.5604 16.242 27.0389 17.3395 27.9792 18.211C28.4053 18.6154 28.8813 18.928 29.4107 19.15C29.2959 19.483 29.1747 19.802 29.0459 20.1082ZM25.0574 4.41352C25.0574 5.44725 24.6798 6.41245 23.927 7.30583C23.0186 8.36789 21.9198 8.98158 20.7282 8.88474C20.7123 8.75478 20.7042 8.62397 20.7042 8.49304C20.7042 7.50066 21.1362 6.4386 21.9034 5.57024C22.2865 5.13057 22.7736 4.76499 23.3643 4.47336C23.9538 4.18609 24.5113 4.02721 25.0357 4C25.0511 4.13819 25.0574 4.27641 25.0574 4.41352Z" fill="#020202"/>
</svg>