<svg xmlns="http://www.w3.org/2000/svg" width="16" height="16" viewBox="0 0 16 16" fill="none">
  <path fill-rule="evenodd" clip-rule="evenodd" d="M9.14705 3.1461C9.05341 3.23985 9.00082 3.36694 9.00082 3.49944C9.00082 3.63194 9.05341 3.75902 9.14705 3.85277L12.2937 6.99944H2.83371C2.7011 6.99944 2.57393 7.05212 2.48016 7.14589C2.38639 7.23965 2.33371 7.36683 2.33371 7.49944C2.33371 7.63205 2.38639 7.75922 2.48016 7.85299C2.57393 7.94676 2.7011 7.99944 2.83371 7.99944H12.2937L9.14705 11.1461C9.09792 11.1919 9.05852 11.2471 9.03119 11.3084C9.00386 11.3697 8.98917 11.436 8.98798 11.5031C8.9868 11.5702 8.99915 11.6369 9.0243 11.6992C9.04944 11.7614 9.08687 11.818 9.13435 11.8655C9.18183 11.9129 9.23839 11.9504 9.30065 11.9755C9.36291 12.0007 9.42959 12.013 9.49673 12.0118C9.56386 12.0106 9.63007 11.996 9.6914 11.9686C9.75274 11.9413 9.80794 11.9019 9.85371 11.8528L13.8537 7.85277C13.9473 7.75902 13.9999 7.63194 13.9999 7.49944C13.9999 7.36694 13.9473 7.23986 13.8537 7.1461L9.85371 3.1461C9.75996 3.05247 9.63288 2.99988 9.50038 2.99988C9.36788 2.99988 9.2408 3.05247 9.14705 3.1461Z" fill="#020202"/>
</svg>