<svg xmlns="http://www.w3.org/2000/svg" width="156" height="56" viewBox="0 0 156 56" fill="none">
  <rect x="0.5" y="0.5" width="155" height="55" rx="27.5" fill="#020202"/>
  <path fill-rule="evenodd" clip-rule="evenodd" d="M32.3622 18.3138C32.1322 18.561 32 18.9415 32 19.4359V37.0231C32 37.5175 32.1322 37.898 32.3708 38.1367L32.4332 38.1893L42.2876 28.3349V28.1134L32.4246 18.2611L32.3622 18.3138Z" fill="url(#paint0_linear_1_195)"/>
  <path fill-rule="evenodd" clip-rule="evenodd" d="M45.5663 31.6325L42.2793 28.3445V28.1145L45.5673 24.8264L45.6383 24.8705L49.5272 27.0804C50.6408 27.7082 50.6408 28.7422 49.5272 29.3785L45.6383 31.5885C45.6372 31.5885 45.5663 31.6325 45.5663 31.6325Z" fill="url(#paint1_linear_1_195)"/>
  <path fill-rule="evenodd" clip-rule="evenodd" d="M45.6361 31.5885L42.2781 28.2295L32.3613 38.1463C32.7236 38.5354 33.333 38.5795 34.0145 38.199L45.6361 31.5885Z" fill="url(#paint2_linear_1_195)"/>
  <path fill-rule="evenodd" clip-rule="evenodd" d="M45.6361 24.8716L34.0145 18.2698C33.3341 17.8807 32.7236 17.9333 32.3613 18.3224L42.2771 28.2296L45.6361 24.8716Z" fill="url(#paint3_linear_1_195)"/>
  <path opacity="0.2" fill-rule="evenodd" clip-rule="evenodd" d="M45.5663 31.5176L34.0243 38.0754C33.3793 38.4462 32.8043 38.4204 32.4334 38.084L32.3711 38.1463L32.4334 38.199C32.8043 38.5344 33.3793 38.5612 34.0243 38.1904L45.6458 31.5885L45.5663 31.5176Z" fill="black"/>
  <path opacity="0.12" fill-rule="evenodd" clip-rule="evenodd" d="M49.5251 29.2635L45.5566 31.5175L45.6276 31.5885L49.5165 29.3785C50.0733 29.0604 50.3474 28.6455 50.3474 28.2295C50.3119 28.61 50.0292 28.9722 49.5251 29.2635Z" fill="black"/>
  <path opacity="0.25" fill-rule="evenodd" clip-rule="evenodd" d="M34.0154 18.3847L49.5259 27.1966C50.03 27.4792 50.3127 27.8501 50.3567 28.2306C50.3567 27.8157 50.0827 27.3997 49.5259 27.0815L34.0154 18.2697C32.9018 17.6334 32 18.1633 32 19.4359V19.551C32 18.2783 32.9018 17.757 34.0154 18.3847Z" fill="white"/>
  <path fill-rule="evenodd" clip-rule="evenodd" d="M58.1418 27.6716C58.1418 24.8543 60.5097 22.5605 63.327 22.5605C64.8845 22.5605 65.9927 23.1722 66.829 23.9686L65.8444 24.9532C65.2467 24.3921 64.4363 23.9568 63.3259 23.9568C61.2686 23.9568 59.6606 25.6132 59.6606 27.6705C59.6606 29.7278 61.2686 31.3864 63.3249 31.3864C64.6588 31.3864 65.4176 30.8511 65.9046 30.3631C66.3033 29.9643 66.5645 29.3914 66.6656 28.6057H63.327V27.2126H68.0264C68.0758 27.462 68.1016 27.7608 68.1016 28.0843C68.1016 29.1302 67.8146 30.4276 66.8913 31.3509C65.9927 32.286 64.8469 32.7848 63.3259 32.7848C60.5076 32.7848 58.1396 30.4931 58.1396 27.6737L58.1418 27.6716ZM71.9002 26.2012C70.0805 26.2012 68.595 27.5856 68.595 29.4914C68.595 31.3874 70.0794 32.7815 71.9002 32.7815C73.7211 32.7815 75.2033 31.3853 75.2033 29.4903C75.2033 27.5845 73.72 26.2001 71.9002 26.2012ZM71.9002 31.4874C70.9038 31.4874 70.0428 30.6651 70.0428 29.4924C70.0428 28.3079 70.9027 27.4975 71.9002 27.4975C72.8966 27.4975 73.7565 28.3068 73.7565 29.4924C73.7565 30.664 72.8977 31.4874 71.9002 31.4874ZM79.1073 26.2012C77.2875 26.2012 75.8042 27.5856 75.8042 29.4914C75.8042 31.3874 77.2875 32.7815 79.1073 32.7815C80.927 32.7815 82.4104 31.3853 82.4104 29.4903C82.4104 27.5845 80.9281 26.2001 79.1073 26.2012ZM79.1073 31.4874C78.1109 31.4874 77.2499 30.6651 77.2499 29.4924C77.2499 28.3079 78.1098 27.4975 79.1073 27.4975C80.1037 27.4975 80.9647 28.3068 80.9647 29.4924C80.9647 30.664 80.1037 31.4874 79.1073 31.4874ZM87.9524 26.4011V26.9364H87.903C87.5794 26.5483 86.956 26.2001 86.1714 26.2001C84.5257 26.2001 83.0155 27.6469 83.0155 29.5053C83.0155 31.3487 84.5246 32.7837 86.1714 32.7837C86.956 32.7837 87.5794 32.4354 87.903 32.0367H87.9524V32.5096C87.9524 33.7683 87.2796 34.4422 86.195 34.4422C85.3093 34.4422 84.7611 33.8059 84.5365 33.2717L83.2767 33.7952C83.6379 34.6669 84.5988 35.7396 86.1939 35.7396C87.8879 35.7396 89.3218 34.741 89.3218 32.3108V26.4L87.9524 26.4011ZM86.295 31.4874C85.2986 31.4874 84.4612 30.6511 84.4612 29.5053C84.4612 28.3466 85.2975 27.4985 86.295 27.4985C87.2796 27.4985 88.0524 28.3455 88.0524 29.5053C88.0535 30.6511 87.2806 31.4874 86.295 31.4874ZM90.3204 22.9099H91.7672V32.5838H90.3204V22.9099ZM95.7324 31.4874C94.9972 31.4874 94.4726 31.1499 94.1383 30.491L98.5389 28.6691L98.3873 28.295C98.1143 27.5609 97.2781 26.2012 95.5701 26.2012C93.875 26.2012 92.4658 27.5351 92.4658 29.4924C92.4658 31.3358 93.8621 32.7826 95.7324 32.7826C97.2415 32.7826 98.1143 31.8615 98.4755 31.324L97.3533 30.577C96.9782 31.1262 96.4665 31.4885 95.7324 31.4874ZM95.6195 27.4727C96.1924 27.4727 96.6783 27.7597 96.8406 28.1703L93.8976 29.3925C93.861 28.1209 94.8832 27.4727 95.6195 27.4727ZM104.887 22.9099H101.428V32.5838H102.872V28.9195H104.888C106.489 28.9195 108.062 27.7608 108.062 25.9142C108.062 24.0707 106.49 22.911 104.89 22.911L104.887 22.9099ZM104.925 27.5727H102.872V24.2556H104.925C106.004 24.2556 106.619 25.151 106.619 25.9142C106.619 26.6644 106.004 27.5727 104.925 27.5727ZM110.301 32.5838V22.9099H108.858V32.5838H110.301ZM116.786 32.5666V28.8582C116.786 27.1406 115.503 26.1829 113.846 26.1829C112.803 26.1829 111.72 26.644 111.272 27.6641L112.553 28.1983C112.827 27.6641 113.337 27.4889 113.873 27.4889C114.619 27.4889 115.378 27.9371 115.39 28.7346V28.8346C115.129 28.6852 114.57 28.4605 113.884 28.4605C112.503 28.4605 111.097 29.2194 111.097 30.6382C111.097 31.9335 112.23 32.7665 113.499 32.7665C114.471 32.7665 115.005 32.3312 115.34 31.8217H115.39V32.5687H116.785L116.786 32.5666ZM113.674 31.4852C113.201 31.4852 112.541 31.2488 112.541 30.6651C112.541 29.9181 113.364 29.63 114.073 29.63C114.708 29.63 115.006 29.7665 115.393 29.9535C115.282 30.822 114.548 31.4745 113.674 31.4852ZM121.863 26.3946L120.207 30.5877H120.158L118.44 26.3946H116.885L119.46 32.257L117.991 35.5171H119.497L123.466 26.3946H121.863Z" fill="white"/>
  <rect x="0.5" y="0.5" width="155" height="55" rx="27.5" stroke="black"/>
  <defs>
    <linearGradient id="paint0_linear_1_195" x1="41.4028" y1="19.2469" x2="25.6176" y2="23.4529" gradientUnits="userSpaceOnUse">
      <stop stop-color="#00A0FF"/>
      <stop offset="0.007" stop-color="#00A1FF"/>
      <stop offset="0.26" stop-color="#00BEFF"/>
      <stop offset="0.512" stop-color="#00D2FF"/>
      <stop offset="0.76" stop-color="#00DFFF"/>
      <stop offset="1" stop-color="#00E3FF"/>
    </linearGradient>
    <linearGradient id="paint1_linear_1_195" x1="50.9763" y1="28.23" x2="31.7296" y2="28.23" gradientUnits="userSpaceOnUse">
      <stop stop-color="#FFE000"/>
      <stop offset="0.409" stop-color="#FFBD00"/>
      <stop offset="0.775" stop-color="#FFA500"/>
      <stop offset="1" stop-color="#FF9C00"/>
    </linearGradient>
    <linearGradient id="paint2_linear_1_195" x1="43.8101" y1="30.0568" x2="31.1377" y2="51.3852" gradientUnits="userSpaceOnUse">
      <stop stop-color="#FF3A44"/>
      <stop offset="1" stop-color="#C31162"/>
    </linearGradient>
    <linearGradient id="paint3_linear_1_195" x1="29.865" y1="12.4635" x2="35.5186" y2="21.9891" gradientUnits="userSpaceOnUse">
      <stop stop-color="#32A071"/>
      <stop offset="0.069" stop-color="#2DA771"/>
      <stop offset="0.476" stop-color="#15CF74"/>
      <stop offset="0.801" stop-color="#06E775"/>
      <stop offset="1" stop-color="#00F076"/>
    </linearGradient>
  </defs>
</svg>