<svg width="45" height="48" viewBox="0 0 45 48" fill="none" xmlns="http://www.w3.org/2000/svg">
<g filter="url(#filter0_d_1_3)">
<path d="M22.0285 27.2326C20.9319 27.2375 19.8498 26.9718 18.8709 26.4575C17.8921 25.943 17.0443 25.1946 16.3973 24.2735L11.8877 26.968C12.0593 27.1738 12.2625 27.3486 12.489 27.4852L20.5138 32.2969C20.9828 32.5461 21.5019 32.676 22.0285 32.676C22.5552 32.676 23.0743 32.5461 23.5433 32.2969L31.5681 27.4852C31.7946 27.3486 31.9978 27.1738 32.1694 26.968L27.6714 24.2253C27.0281 25.157 26.1808 25.9158 25.1995 26.4388C24.2182 26.9617 23.1311 27.2339 22.0285 27.2326Z" fill="#020202"/>
<path d="M14.9677 19.9711C14.9718 18.2604 15.6367 16.6112 16.8353 15.3385C18.0339 14.0659 19.6821 13.2592 21.465 13.0726V7.88721C21.1945 7.94084 20.9343 8.03391 20.6935 8.16315L12.3278 12.7622C11.8731 13.0523 11.495 13.4389 11.2232 13.8918C10.9513 14.3446 10.793 14.8512 10.7607 15.3721V24.5701C10.7645 24.8355 10.8091 25.099 10.8933 25.352L15.5945 22.7651C15.1834 21.8857 14.9699 20.934 14.9677 19.9711Z" fill="#020202"/>
<path d="M31.8107 12.759L23.8853 8.16298C23.6573 8.0338 23.4107 7.94078 23.1544 7.88721V13.0577C24.2311 13.1804 25.2641 13.5558 26.1703 14.1536C27.0764 14.7514 27.8304 15.555 28.3715 16.4995C28.9125 17.4441 29.2255 18.5033 29.2854 19.5919C29.3452 20.6804 29.1502 21.7679 28.7159 22.7668L33.1697 25.352C33.2495 25.0992 33.2918 24.8359 33.2953 24.5707V15.3787C33.2664 14.8562 33.1173 14.3475 32.8597 13.8929C32.602 13.4382 32.243 13.0501 31.8107 12.759Z" fill="#020202"/>
<path d="M37.584 8.15273L24.5006 0.586084C23.7333 0.200675 22.8866 0 22.0282 0C21.1697 0 20.3232 0.200675 19.5558 0.586084L6.47234 8.15273C5.7542 8.62124 5.15628 9.25228 4.72676 9.99487C4.2973 10.7375 4.04834 11.5708 4 12.4274V27.5607C4.04744 28.4192 4.29594 29.2545 4.72541 29.9992C5.15487 30.7438 5.7533 31.3769 6.47234 31.8473L19.5558 39.4141C20.3232 39.7994 21.1697 40 22.0282 40C22.8866 40 23.7333 39.7994 24.5006 39.4141L37.584 31.8473C38.303 31.3769 38.9015 30.7438 39.3309 29.9992C39.7604 29.2545 40.0089 28.4192 40.0563 27.5607V12.4274C40.008 11.5708 39.759 10.7375 39.3296 9.99487C38.9001 9.25228 38.3021 8.62124 37.584 8.15273ZM35.9042 25.82C35.8657 26.4795 35.6735 27.1208 35.3427 27.6925C35.012 28.2642 34.552 28.7503 33.9996 29.1119L23.9208 34.9379C23.3321 35.2355 22.6818 35.3906 22.0223 35.3906C21.3627 35.3906 20.7123 35.2355 20.1237 34.9379L10.0567 29.1119C9.50434 28.7503 9.04434 28.2642 8.71363 27.6925C8.38287 27.1208 8.19059 26.4795 8.15217 25.82V14.18C8.19059 13.5205 8.38287 12.8792 8.71363 12.3075C9.04434 11.7358 9.50434 11.2496 10.0567 10.8881L20.1118 5.06214C20.7005 4.76451 21.3508 4.60941 22.0104 4.60941C22.67 4.60941 23.3203 4.76451 23.9091 5.06214L33.9878 10.8881C34.5423 11.2483 35.0047 11.7339 35.3375 12.3057C35.6704 12.8774 35.8644 13.5194 35.9042 14.18V25.82Z" fill="#020202"/>
<path d="M16.9582 19.9999C16.9582 20.947 17.2555 21.8729 17.8126 22.6604C18.3698 23.4479 19.1617 24.0617 20.0882 24.4241C21.0147 24.7866 22.0342 24.8814 23.0178 24.6966C24.0014 24.5119 24.9048 24.0558 25.6139 23.3861C26.323 22.7164 26.8059 21.8631 27.0016 20.9342C27.1972 20.0052 27.0968 19.0424 26.713 18.1674C26.3293 17.2923 25.6795 16.5444 24.8456 16.0182C24.0118 15.492 23.0314 15.2112 22.0286 15.2112C20.6839 15.2112 19.3942 15.7157 18.4433 16.6138C17.4924 17.5119 16.9582 18.7299 16.9582 19.9999Z" fill="#020202"/>
</g>
<defs>
<filter id="filter0_d_1_3" x="0" y="0" width="44.0563" height="48" filterUnits="userSpaceOnUse" color-interpolation-filters="sRGB">
<feFlood flood-opacity="0" result="BackgroundImageFix"/>
<feColorMatrix in="SourceAlpha" type="matrix" values="0 0 0 0 0 0 0 0 0 0 0 0 0 0 0 0 0 0 127 0" result="hardAlpha"/>
<feOffset dy="4"/>
<feGaussianBlur stdDeviation="2"/>
<feComposite in2="hardAlpha" operator="out"/>
<feColorMatrix type="matrix" values="0 0 0 0 0 0 0 0 0 0 0 0 0 0 0 0 0 0 0.25 0"/>
<feBlend mode="normal" in2="BackgroundImageFix" result="effect1_dropShadow_1_3"/>
<feBlend mode="normal" in="SourceGraphic" in2="effect1_dropShadow_1_3" result="shape"/>
</filter>
</defs>
</svg>
